<?xml version="1.0" standalone="no"?>
<!DOCTYPE svg PUBLIC "-//W3C//DTD SVG 20010904//EN"
 "http://www.w3.org/TR/2001/REC-SVG-20010904/DTD/svg10.dtd">
<svg version="1.0" xmlns="http://www.w3.org/2000/svg"
 width="16.000000pt" height="16.000000pt" viewBox="0 0 16.000000 16.000000"
 preserveAspectRatio="xMidYMid meet">
<metadata>
Created by potrace 1.11, written by Peter Selinger 2001-2013
</metadata>
<g transform="translate(0.000000,16.000000) scale(0.003200,-0.003200)"
fill="#000000" stroke="none">
<path d="M0 2500 l0 -2500 2500 0 2500 0 0 2500 0 2500 -2500 0 -2500 0 0
-2500z m281 2315 c58 -23 335 -94 544 -140 239 -52 415 -121 510 -197 105 -85
139 -165 133 -313 -7 -180 -61 -255 -298 -415 -209 -142 -252 -211 -251 -403
1 -173 50 -445 96 -537 12 -22 9 -33 -26 -103 -48 -95 -92 -224 -121 -354 -31
-140 -32 -416 -1 -553 27 -117 65 -234 99 -303 40 -80 118 -217 125 -217 3 0
11 22 18 50 22 86 87 207 143 267 73 76 133 105 231 111 104 6 160 -10 213
-63 50 -51 71 -105 114 -290 35 -157 58 -216 100 -260 l28 -30 -25 -95 c-22
-81 -26 -124 -30 -288 -3 -107 -9 -190 -13 -185 -11 11 -52 164 -103 388 -24
105 -52 208 -62 228 -65 137 -242 143 -370 11 -110 -113 -204 -330 -205 -473
l-1 -46 -62 66 c-159 165 -289 374 -386 616 -114 288 -146 481 -186 1135 -10
171 -66 401 -127 522 -16 32 -26 61 -23 65 4 3 55 6 113 5 127 -1 238 -32 317
-88 27 -20 50 -34 51 -33 1 1 -20 47 -47 102 -69 143 -148 395 -179 575 -27
158 -35 189 -62 249 -15 35 -41 85 -58 112 -112 183 -222 430 -257 579 -30
130 -38 330 -14 330 4 0 36 -11 72 -25z m4489 -77 c0 -233 -70 -439 -265 -783
-83 -147 -89 -162 -125 -333 -71 -333 -123 -502 -197 -645 -47 -89 -47 -90 10
-52 89 59 195 88 319 89 58 1 110 -2 114 -6 4 -4 -7 -34 -24 -65 -78 -148
-116 -353 -147 -793 -25 -357 -33 -415 -80 -597 -87 -333 -234 -618 -435 -842
-47 -52 -89 -96 -95 -98 -6 -2 -11 20 -11 50 -2 83 -32 194 -76 283 -95 193
-217 286 -351 271 -124 -15 -153 -75 -241 -497 -17 -79 -69 -248 -72 -235 -2
6 -5 100 -7 210 -4 176 -8 210 -29 283 -21 70 -23 84 -11 94 44 36 90 155 123
316 29 144 54 204 105 255 55 55 107 71 212 65 119 -7 204 -56 272 -156 38
-56 111 -224 111 -256 0 -30 16 -16 52 46 87 151 153 310 177 428 64 316 21
662 -118 938 l-38 75 24 57 c51 126 87 369 81 542 -5 174 -49 239 -257 375
-141 93 -222 172 -258 250 -24 52 -26 71 -27 178 -1 115 0 122 28 173 85 153
291 254 677 332 154 31 372 88 456 119 43 16 84 30 91 30 9 1 12 -26 12 -101z
m-2105 -428 c212 -19 219 -21 570 -104 l140 -33 7 -59 c5 -41 24 -92 59 -163
43 -87 65 -118 133 -186 44 -45 97 -89 116 -98 l35 -18 -40 7 c-22 3 -69 12
-105 19 -208 42 -472 44 -655 6 -109 -24 -253 -87 -318 -141 -50 -42 -92 -106
-110 -166 -13 -44 -15 -46 -21 -24 -26 96 -33 107 -92 166 -200 195 -596 244
-1112 139 -22 -5 -20 -2 14 17 65 37 112 79 161 143 77 101 143 253 143 327 0
16 6 30 13 32 6 2 55 14 107 25 52 12 149 35 215 51 237 58 517 80 740 60z
m-959 -835 c68 -34 147 -113 215 -216 162 -242 260 -523 263 -746 1 -127 -15
-154 -33 -56 -26 143 -123 333 -226 441 -73 77 -143 123 -247 159 -64 23 -89
27 -203 27 -122 1 -135 -1 -203 -29 -40 -16 -95 -47 -122 -67 -62 -47 -64 -35
-10 73 106 212 275 385 420 430 47 14 96 9 146 -16z m1768 -10 c136 -64 323
-295 395 -487 11 -30 1 -37 -19 -14 -25 31 -113 79 -185 102 -132 42 -323 26
-446 -37 -116 -59 -220 -164 -293 -297 -43 -78 -98 -222 -111 -295 -9 -47 -21
-47 -29 1 -16 97 6 241 64 413 102 307 302 593 448 640 42 13 116 3 176 -26z
m-2215 -788 c85 -69 191 -142 250 -172 26 -13 121 -42 212 -65 184 -47 244
-74 309 -141 61 -62 98 -133 115 -224 36 -187 2 -398 -124 -769 -22 -65 -44
-123 -50 -129 -12 -12 -56 73 -75 146 -8 29 -17 91 -20 137 -6 75 -18 181 -31
267 -21 144 -102 321 -184 403 -71 71 -130 99 -219 107 -113 9 -199 -17 -274
-85 -54 -48 -79 -109 -123 -289 -19 -81 -39 -161 -43 -178 -7 -26 -11 -15 -30
75 -64 308 -54 549 32 760 40 98 130 210 169 210 11 0 50 -24 86 -53z m2581
33 c16 -11 50 -54 75 -95 117 -188 148 -428 100 -770 -18 -130 -28 -171 -41
-168 -5 1 -23 69 -40 150 -18 81 -42 173 -53 204 -28 75 -85 138 -157 174 -54
27 -68 30 -159 30 -122 0 -171 -20 -256 -105 -116 -115 -186 -322 -214 -637
-15 -166 -18 -183 -51 -252 -20 -43 -38 -71 -43 -65 -24 25 -117 317 -157 492
-65 288 -33 504 95 632 66 66 125 92 311 140 116 29 187 53 237 80 68 37 264
177 278 200 10 16 45 12 75 -10z m-1502 -647 c60 -191 80 -339 64 -486 -19
-171 -49 -257 -191 -542 -137 -274 -151 -309 -151 -391 0 -44 -4 -54 -25 -68
-30 -20 -85 -112 -85 -143 0 -45 -18 -30 -29 24 -34 170 11 389 169 823 123
340 192 596 206 770 4 44 10 80 14 80 3 0 16 -30 28 -67z m332 13 c0 -24 7
-81 15 -127 30 -172 55 -256 260 -854 84 -247 106 -341 112 -485 3 -80 1 -140
-6 -167 -13 -46 -31 -58 -31 -20 0 35 -49 126 -81 149 -24 18 -29 29 -29 64 0
81 -24 150 -118 334 -138 269 -137 267 -177 386 -34 100 -38 121 -42 254 -3
80 -1 183 5 230 12 92 67 280 82 280 6 0 10 -20 10 -44z m-170 -839 c0 -20 66
-153 101 -203 17 -24 67 -86 111 -137 44 -51 90 -112 103 -137 21 -41 47 -120
40 -120 -1 0 -38 9 -81 21 -61 16 -119 22 -259 25 -165 5 -189 3 -285 -19 -58
-14 -107 -23 -109 -21 -2 2 2 24 9 50 17 58 71 141 147 224 89 98 155 206 196
323 7 19 27 14 27 -6z m175 -658 c102 -12 184 -39 234 -76 39 -30 81 -114 81
-163 0 -53 -24 -64 -124 -54 -193 17 -330 -2 -363 -52 l-17 -26 -19 26 c-36
50 -182 70 -373 51 -91 -9 -114 2 -114 53 0 49 39 131 78 164 17 14 51 33 74
42 106 40 362 57 543 35z"/>
<path d="M394 4465 c10 -65 51 -179 87 -244 34 -59 165 -235 198 -265 23 -21
58 -14 183 40 173 74 328 199 328 264 0 94 -176 166 -478 195 -86 8 -190 24
-229 35 -99 27 -96 28 -89 -25z"/>
<path d="M4536 4504 c-51 -18 -183 -41 -322 -54 -247 -23 -434 -102 -434 -184
0 -32 45 -95 98 -138 58 -47 237 -139 327 -168 l69 -23 39 44 c118 133 202
269 235 379 18 61 37 161 30 159 -2 0 -20 -7 -42 -15z"/>
</g>
</svg>
