<?xml version="1.0" encoding="utf-8"?>
<!-- Generator: Adobe Illustrator 21.0.0, SVG Export Plug-In . SVG Version: 6.00 Build 0)  -->
<svg version="1.1" id="Layer_1" xmlns="http://www.w3.org/2000/svg" xmlns:xlink="http://www.w3.org/1999/xlink" x="0px" y="0px"
	 viewBox="0 0 85.6 82" style="enable-background:new 0 0 85.6 82;" xml:space="preserve">
<style type="text/css">
	.st0{fill:#ff0000;}
</style>
<g>
	<polygon class="st0" points="30.5,53.5 3.2,49 23.4,30.1 19.4,2.8 43.5,16.2 68.3,3.9 63,31 82.4,50.7 54.9,54.1 42.2,78.6 	"/>
	<path d="M21.3,5.6l20.8,11.5l1.4,0.8l1.4-0.7L66.2,6.6l-4.5,23.4l-0.3,1.5l1.1,1.1l16.7,17l-23.6,2.9L54,52.7l-0.7,1.4l-11,21.1
		L32.2,53.6l-0.7-1.4L30,51.9L6.5,48l17.4-16.2l1.2-1.1l-0.2-1.6L21.3,5.6 M17.4,0l4.4,29.6L0,49.9l29.5,4.9L42.1,82l13.8-26.5
		l29.7-3.6L64.6,30.5l5.7-29.3L43.6,14.5L17.4,0L17.4,0z"/>
</g>
</svg>
